<svg width="32" height="32" viewBox="0 0 32 32" fill="none" xmlns="http://www.w3.org/2000/svg">
<rect width="32" height="32" rx="16" fill="white"/>
<path fill-rule="evenodd" clip-rule="evenodd" d="M16 7C14.3431 7 13 8.34315 13 10V16C13 17.6569 14.3431 19 16 19C17.6569 19 19 17.6569 19 16V10C19 8.34315 17.6569 7 16 7ZM11.5 16C11.5 15.5858 11.1642 15.25 10.75 15.25C10.3358 15.25 10 15.5858 10 16C10 17.9175 10.6216 19.4436 11.7383 20.4858C12.6753 21.3603 13.9011 21.8386 15.25 21.9654V24.25C15.25 24.6642 15.5858 25 16 25C16.4142 25 16.75 24.6642 16.75 24.25V21.9654C18.0989 21.8386 19.3247 21.3603 20.2617 20.4858C21.3784 19.4436 22 17.9175 22 16C22 15.5858 21.6642 15.25 21.25 15.25C20.8358 15.25 20.5 15.5858 20.5 16C20.5 17.5825 19.9966 18.6814 19.2383 19.3892C18.4713 20.105 17.3583 20.5 16 20.5C14.6417 20.5 13.5287 20.105 12.7617 19.3892C12.0034 18.6814 11.5 17.5825 11.5 16Z" fill="#00A981"/>
</svg>
