<svg width="32" height="32" viewBox="0 0 32 32" fill="none" xmlns="http://www.w3.org/2000/svg">
<rect width="32" height="32" rx="16" fill="white"/>
<path d="M16 7C17.5979 7 18.904 8.24928 18.9949 9.8244L13 15.8193V10C13 8.34315 14.3431 7 16 7Z" fill="#F63135"/>
<path d="M19 14.0607L24.5303 8.53033C24.8232 8.23744 24.8232 7.76256 24.5303 7.46967C24.2374 7.17678 23.7626 7.17678 23.4697 7.46967L7.46967 23.4697C7.17678 23.7626 7.17678 24.2374 7.46967 24.5303C7.76256 24.8232 8.23744 24.8232 8.53033 24.5303L12.1956 20.8651C13.0594 21.5005 14.1108 21.8583 15.25 21.9654V24.25C15.25 24.6642 15.5858 25 16 25C16.4142 25 16.75 24.6642 16.75 24.25V21.9654C18.0989 21.8386 19.3247 21.3603 20.2617 20.4858C21.3784 19.4436 22 17.9175 22 16C22 15.5858 21.6642 15.25 21.25 15.25C20.8358 15.25 20.5 15.5858 20.5 16C20.5 17.5825 19.9966 18.6814 19.2383 19.3892C18.4713 20.105 17.3583 20.5 16 20.5C14.919 20.5 13.9933 20.2498 13.2738 19.7868L14.476 18.5846C14.9227 18.8486 15.4436 19 16 19C17.6569 19 19 17.6569 19 16V14.0607Z" fill="#F63135"/>
<path d="M11.6111 17.2082C11.5388 16.8415 11.5 16.4394 11.5 16C11.5 15.5858 11.1642 15.25 10.75 15.25C10.3358 15.25 10 15.5858 10 16C10 16.8969 10.136 17.7082 10.395 18.4243L11.6111 17.2082Z" fill="#F63135"/>
</svg>
